inDegrees=no
num_controls=7
num_derivatives=13
num_iterations=142
num_multipliers=7
num_parameters=0
num_slacks=7
num_states=26
objective=5.524681
objective_accelerations=0.669406
objective_balance=0.036899
objective_effort=0.248291
objective_height=4.525168
objective_ligament=0.044917
solver_duration=1576.736140
status=Solve_Succeeded
success=true
DataType=double
version=3
OpenSimVersion=4.4-2022-07-23-0e9fedc
endheader
time	/jointset/ground_pelvis/pelvis_tilt/value	/jointset/ground_pelvis/pelvis_tx/value	/jointset/ground_pelvis/pelvis_ty/value	/jointset/hip_l/hip_flexion_l/value	/jointset/hip_l/hip_adduction_l/value	/jointset/hip_l/hip_rotation_l/value	/jointset/back/lumbar_extension/value	/jointset/patellofemoral_l/patellar_flexion_l/value	/jointset/knee_l/knee_flexion_l/value	/jointset/knee_l/knee_adduction_l/value	/jointset/knee_l/knee_rotation_l/value	/jointset/ankle_l/ankle_angle_l/value	/jointset/subtalar_l/subtalar_angle_l/value	/jointset/ground_pelvis/pelvis_tilt/speed	/jointset/ground_pelvis/pelvis_tx/speed	/jointset/ground_pelvis/pelvis_ty/speed	/jointset/hip_l/hip_flexion_l/speed	/jointset/hip_l/hip_adduction_l/speed	/jointset/hip_l/hip_rotation_l/speed	/jointset/back/lumbar_extension/speed	/jointset/patellofemoral_l/patellar_flexion_l/speed	/jointset/knee_l/knee_flexion_l/speed	/jointset/knee_l/knee_adduction_l/speed	/jointset/knee_l/knee_rotation_l/speed	/jointset/ankle_l/ankle_angle_l/speed	/jointset/subtalar_l/subtalar_angle_l/speed	/forceset/tau_hip_flexion_l	/forceset/tau_hip_adduction_l	/forceset/tau_hip_rotation_l	/forceset/tau_knee_flexion_l	/forceset/tau_ankle_angle_l	/forceset/tau_subtalar_angle_l	/forceset/tau_lumbar_extension	lambda_cid13_p0	lambda_cid13_p1	lambda_cid13_p2	lambda_cid13_p3	lambda_cid13_p4	lambda_cid13_p5	lambda_cid14_p0	/jointset/ground_pelvis/pelvis_tilt/accel	/jointset/ground_pelvis/pelvis_tx/accel	/jointset/ground_pelvis/pelvis_ty/accel	/jointset/hip_l/hip_flexion_l/accel	/jointset/hip_l/hip_adduction_l/accel	/jointset/hip_l/hip_rotation_l/accel	/jointset/back/lumbar_extension/accel	/jointset/patellofemoral_l/patellar_flexion_l/accel	/jointset/knee_l/knee_flexion_l/accel	/jointset/knee_l/knee_adduction_l/accel	/jointset/knee_l/knee_rotation_l/accel	/jointset/ankle_l/ankle_angle_l/accel	/jointset/subtalar_l/subtalar_angle_l/accel	gamma_cid13_p0	gamma_cid13_p1	gamma_cid13_p2	gamma_cid13_p3	gamma_cid13_p4	gamma_cid13_p5	gamma_cid14_p0
1	-0.3791768541303158	0.01214866452107643	0.5991187691050056	1.53968091273203	-0.4913168320134899	0.007050943950766119	-0.2617960056403101	1.465952275093474	1.465952275093298	-0.05330798945864804	-0.1745297899228439	0.4362388679267795	0.10502810963233	-0.01618715295336763	0.009742057695591465	0.0009281901305471992	-0.001718541104087707	-0.003618249447134254	0.002611731621561234	-9.173416560352904e-06	0.0001408201477398585	0.0001408201477399965	-0.006134007296063098	-9.246280690083345e-06	0.01722381569418361	0.008314430970222421	-0.2429559003855737	0.05429746578214053	0.001382338467785102	-0.3560290416682756	-0.07342170223743107	0.01816317732461412	0.2266432885367398	-62.92361966745403	4.126958686712072	-2.133545533230104	16.42837482527984	-634.9319349212948	-57.56603805674204	-0.2448159313595016	1.04952608444819	-0.01540585379733317	1.847663384411262	-5.657469210211244	0.208664229546266	-2.285840616466897	-0.01483509917019808	-5.559513111154543	-5.559513111154438	-0.7076374014046219	-0.02906467680921444	-1.685022663262294	-1.017865216034957	2.900874739042355e-09	1.961143265141933e-08	-1.336205464244327e-08	3.682889865375439e-09	-9.799769988587212e-10	3.44890287540251e-08	7.569490501739189e-10
1.01	-0.3792869316890065	0.01224530620127677	0.5992202849930695	1.539381918080629	-0.4913418453515941	0.006961822865641285	-0.2617960669426211	1.465676001315983	1.465676001316217	-0.0534023972802975	-0.1745299206196711	0.4363271070233669	0.1050618265542297	-0.005828003264184178	0.009589162773282176	0.01937096799944906	-0.05807293929095598	-0.001383296300575235	-0.02043296264886262	-2.414214595392008e-06	-0.05539040400782642	-0.05539040400782184	-0.01274645956429619	-1.82708182720879e-05	0.0004224970647510537	-0.001570285576772608	-0.2428781353495016	0.05433042889133093	0.00137040486212084	-0.3558339431245658	-0.07346498075769967	0.01818596672682752	0.2265826078500868	-62.92182595037722	4.108947568966447	-2.121764994160691	16.33634501919136	-634.7632352877719	-57.5671655627685	-0.2470034562901851	1.029161783011771	-0.01479812496811421	1.841980068814852	-5.623308791048103	0.2310769710296408	-2.313341954134417	0.008532354291301857	-5.549149297497205	-5.549149297496838	-0.6378887914952592	0.01297958139994295	-1.677912878043477	-0.9736645747150153	-5.258801715098224e-09	2.874872177597487e-09	2.897342912776998e-08	2.622124818713004e-09	-9.894369474138687e-09	5.494435843726477e-08	-1.00140449054403e-08
1.02	-0.3792934072764361	0.01234050556954863	0.5995061076759605	1.538519602713708	-0.4913444759354822	0.006642343213476823	-0.2617960404680594	1.464844570850989	1.464844570851637	-0.0535628975549842	-0.1745301813770841	0.4362472876503207	0.1049967183705195	0.004533241299346196	0.009453595309895379	0.03778954909582546	-0.1143826842027724	0.0008583013987403457	-0.04345998179145556	8.381963847713441e-06	-0.1108905173529741	-0.1108905173529662	-0.01935249791104086	-3.525841054640278e-05	-0.01638787817507397	-0.01145059015109683	-0.2428003703135517	0.05436339200050332	0.001358471256622951	-0.3556388445808439	-0.07350825927794652	0.01820875612902551	0.2265219271633202	-62.92828011986501	4.091961477323781	-2.109669217052593	16.28360313586107	-634.7201774139004	-57.55327348633494	-0.2534195217650928	1.049945059317664	-0.01194036201288034	1.842824029906168	-5.648538555200868	0.2099931400976279	-2.282305590900653	-0.01402770387481144	-5.553290949070828	-5.55329094907095	-0.7063546171069327	-0.03065728774758322	-1.68683398534086	-1.016982821500771	-1.314428261499485e-08	-1.304974510438576e-08	7.144256761502809e-08	1.738156294611785e-09	-1.879274774809785e-08	7.501831858386985e-08	-2.060333319715862e-08
1.03	-0.3791962374461448	0.01243445792199934	0.5999759231845582	1.537094542286485	-0.4913246326435375	0.006092759664004979	-0.2617959154864502	1.463458377939379	1.463458377939323	-0.05378940078166894	-0.1745306594086895	0.4359992805601914	0.104832875687753	0.01490298806928627	0.009341928855681067	0.05616233785297017	-0.1706087298845769	0.003114799868401297	-0.06644507588779802	1.468370576225422e-05	-0.1663345857167806	-0.1663345857167977	-0.02594406115328722	-6.038928893265755e-05	-0.03321861342139637	-0.02131094551630977	-0.2424672868455998	0.05434341046612196	0.001317398004578313	-0.3552373439600735	-0.07336504281281449	0.01828810044495275	0.2262722448624051	-62.84788586696671	4.018994666220088	-2.07013004271507	16.1394549494224	-634.3371654999336	-57.59121383186559	-0.2642629574436995	1.030826754640196	-0.0100215706049726	1.832818490893111	-5.606539592197599	0.2341315009169196	-2.304883830126503	0.007669513964329155	-5.537936590216114	-5.537936590219949	-0.6349589109797634	0.01157766985771625	-1.681957258187344	-0.9695205435524948	-2.102696560107266e-08	-2.89660772517584e-08	1.139130699259295e-07	8.559918166591498e-10	-2.769096261183946e-08	9.508838720459092e-08	-3.119076734944943e-08
